# Blender 4.0.2
# www.blender.org
o Cube
v -0.181268 0.003065 0.794078
v -0.181268 1.286677 0.794078
v -0.415383 0.003065 0.197428
v -0.415383 1.286677 0.197428
v 0.415383 0.003065 0.559964
v 0.415383 1.286677 0.559964
v 0.181268 0.003065 -0.036687
v 0.181268 1.286677 -0.036687
v -1.000000 0.000000 1.000000
v 1.000000 0.000000 1.000000
v -1.000000 0.000000 -1.000000
v 1.000000 0.000000 -1.000000
v -1.000000 0.000000 -1.000000
v 1.000000 0.000000 -1.000000
v -1.000000 2.000000 -1.000000
v 1.000000 2.000000 -1.000000
v -1.000000 2.000000 1.000000
v 1.000000 2.000000 1.000000
v -1.000000 0.000000 1.000000
v 1.000000 0.000000 1.000000
v -1.000000 2.000000 1.000000
v -1.000000 0.000000 1.000000
v -1.000000 2.000000 -1.000000
v -1.000000 0.000000 -1.000000
v -1.000000 2.000000 1.000000
v 1.000000 2.000000 1.000000
v -1.000000 2.000000 -1.000000
v 1.000000 2.000000 -1.000000
v -0.028454 0.005155 -0.448425
v -0.028454 0.522572 -0.448425
v 0.295583 0.005155 -0.851813
v 0.295583 0.522572 -0.851813
v 0.374933 0.005155 -0.124389
v 0.374933 0.522572 -0.124389
v 0.698969 0.005155 -0.527777
v 0.698969 0.522572 -0.527777
vn -0.9309 -0.0000 0.3653
vn -0.3653 -0.0000 -0.9309
vn 0.9309 -0.0000 -0.3653
vn 0.3653 -0.0000 0.9309
vn -0.0000 -1.0000 -0.0000
vn -0.0000 1.0000 -0.0000
vn -0.0000 -0.0000 1.0000
vn -0.0000 -0.0000 -1.0000
vn 1.0000 -0.0000 -0.0000
vn -0.7796 -0.0000 -0.6263
vn 0.6263 -0.0000 -0.7796
vn 0.7796 -0.0000 0.6263
vn -0.6263 -0.0000 0.7796
vt 0.790198 0.500220
vt 0.770032 0.520386
vt 0.770032 0.500220
vt 0.790198 0.520386
vt 0.770032 0.540552
vt 0.790198 0.540552
vt 0.770032 0.560718
vt 0.790198 0.560718
vt 0.770032 0.580884
vt 0.749866 0.560718
vt 0.749866 0.540552
vt 0.810364 0.540552
vt 0.499780 0.499780
vt 0.000220 0.000220
vt 0.499780 0.000220
vt 0.000220 0.500220
vt 0.249662 0.999780
vt 0.000220 0.999780
vt 0.499984 0.999780
vt 0.749427 0.500220
vt 0.749427 0.999780
vt 0.250102 0.999780
vt 0.499545 0.500220
vt 0.499545 0.999780
vt 0.500220 0.000220
vt 0.999780 0.499780
vt 0.999780 0.000220
vt 0.790198 0.581323
vt 0.770032 0.601489
vt 0.770032 0.581323
vt 0.790198 0.601489
vt 0.770032 0.621655
vt 0.790198 0.621655
vt 0.770032 0.641821
vt 0.790198 0.641821
vt 0.770032 0.661987
vt 0.749866 0.641821
vt 0.749866 0.621655
vt 0.810364 0.621655
vt 0.790198 0.580884
vt 0.810364 0.560718
vt 0.000220 0.499780
vt 0.249662 0.500220
vt 0.499984 0.500220
vt 0.250102 0.500220
vt 0.500220 0.499780
vt 0.790198 0.661987
vt 0.810364 0.641821
s 0
f 2/1/1 3/2/1 1/3/1
f 4/4/2 7/5/2 3/2/2
f 8/6/3 5/7/3 7/5/3
f 6/8/4 1/9/4 5/7/4
f 7/5/5 1/10/5 3/11/5
f 4/12/6 6/8/6 8/6/6
f 10/13/6 11/14/6 9/15/6
f 14/16/7 15/17/7 13/18/7
f 17/19/8 20/20/8 19/21/8
f 22/22/9 23/23/9 21/24/9
f 27/25/5 26/26/5 25/27/5
f 30/28/10 31/29/10 29/30/10
f 32/31/11 35/32/11 31/29/11
f 36/33/12 33/34/12 35/32/12
f 34/35/13 29/36/13 33/34/13
f 35/32/5 29/37/5 31/38/5
f 32/39/6 34/35/6 36/33/6
f 2/1/1 4/4/1 3/2/1
f 4/4/2 8/6/2 7/5/2
f 8/6/3 6/8/3 5/7/3
f 6/8/4 2/40/4 1/9/4
f 7/5/5 5/7/5 1/10/5
f 4/12/6 2/41/6 6/8/6
f 10/13/6 12/42/6 11/14/6
f 14/16/7 16/43/7 15/17/7
f 17/19/8 18/44/8 20/20/8
f 22/22/9 24/45/9 23/23/9
f 27/25/5 28/46/5 26/26/5
f 30/28/10 32/31/10 31/29/10
f 32/31/11 36/33/11 35/32/11
f 36/33/12 34/35/12 33/34/12
f 34/35/13 30/47/13 29/36/13
f 35/32/5 33/34/5 29/37/5
f 32/39/6 30/48/6 34/35/6
