# Blender v2.83.0 OBJ File: ''
# www.blender.org
o Plane_Plane.001
v -0.643361 1.364878 -0.245380
v -0.505612 0.777123 -0.151911
v -0.300363 1.364878 -0.750870
v -0.162615 0.777123 -0.657401
v -0.291687 1.307346 -0.660218
v -0.553377 1.307346 -0.274554
v -0.448282 0.858919 -0.203242
v -0.186592 0.858919 -0.588906
vt 0.118525 0.118525
vt 0.881475 0.118525
vt 0.881475 0.881475
vt 0.118525 0.881475
vt 0.000000 1.000000
vt 0.000000 0.000000
vt 1.000000 0.000000
vt 1.000000 1.000000
vn 0.7962 0.2725 0.5402
vn 0.5823 0.7104 0.3951
vn 0.4348 0.2399 0.8680
vn 0.8068 -0.2219 0.5475
vn 0.9700 0.2364 0.0572
s off
f 6/1/1 7/2/1 8/3/1 5/4/1
f 6/1/2 5/4/2 3/5/2 1/6/2
f 7/2/3 6/1/3 1/6/3 2/7/3
f 8/3/4 7/2/4 2/7/4 4/8/4
f 5/4/5 8/3/5 4/8/5 3/5/5
